<svg width="567" height="402" viewBox="0 0 567 402" fill="none" xmlns="http://www.w3.org/2000/svg">
<g opacity="0.7">
<path d="M30.8295 107.854L30.3945 160.973L109.057 161.62L109.492 108.5L30.8295 107.854Z" fill="#F5F5F5"/>
<path d="M109.744 109.131C109.518 109.388 109.269 109.622 109 109.832L106.796 111.743L98.5921 118.648L71.2944 141.292L71.067 141.476L70.8396 141.292L70.2886 140.845L42.4749 118.061L34.1308 111.121C33.1862 110.323 32.4427 109.683 31.8742 109.193C31.6006 108.982 31.346 108.747 31.1133 108.492C31.4259 108.657 31.7193 108.857 31.9879 109.088L34.332 110.902L42.851 117.684L70.8396 140.293L71.3906 140.74H70.8659L98.3034 118.262L106.648 111.524L108.939 109.727C109.187 109.502 109.456 109.303 109.744 109.131Z" fill="#E1E1E1"/>
<path d="M30.6316 161.604C30.4829 161.482 36.4568 154.243 43.9699 145.454C51.4831 136.665 57.7106 129.637 57.8593 129.768C58.008 129.9 52.0342 137.129 44.5122 145.918C36.9903 154.708 30.7978 161.736 30.6316 161.604Z" fill="#E1E1E1"/>
<path d="M84.0306 129.313C84.1881 129.199 89.9695 136.472 96.9491 145.568C103.929 154.664 109.465 162.13 109.308 162.218C109.15 162.305 103.369 155.067 96.3893 145.971C89.4097 136.875 83.8732 129.435 84.0306 129.313Z" fill="#E1E1E1"/>
</g>
<g opacity="0.7">
<path d="M99.346 45.2252L98.9727 82.6257L154.355 83.1806L154.728 45.78L99.346 45.2252Z" fill="#F5F5F5"/>
<path d="M154.547 46.0121C154.387 46.1913 154.211 46.3556 154.022 46.5028L152.474 47.8435L146.692 52.7158C141.751 56.8256 134.972 62.4427 127.45 68.6557L127.293 68.7872L127.135 68.6645L126.742 68.349L107.185 52.3127L101.29 47.4054L99.7328 46.0559C99.5403 45.9058 99.3618 45.7386 99.1992 45.5564C99.4105 45.6771 99.6097 45.818 99.794 45.977L101.447 47.2564L107.447 52.0323L127.127 67.9459L127.511 68.2614H127.188L146.509 52.4354L152.386 47.6946L153.961 46.4239C154.14 46.2645 154.336 46.1263 154.547 46.0121Z" fill="#E1E1E1"/>
<path d="M98.8574 82.9569C98.7524 82.8605 102.959 77.7692 108.251 71.565C113.543 65.3608 117.925 60.4272 118.03 60.5236C118.135 60.62 113.928 65.7025 108.636 71.9155C103.344 78.1285 98.9623 83.0445 98.8574 82.9569Z" fill="#E1E1E1"/>
<path d="M136.468 60.2167C136.582 60.1379 140.649 65.2555 145.564 71.6612C150.48 78.067 154.372 83.3248 154.267 83.4124C154.162 83.5001 150.086 78.3737 145.171 71.9679C140.255 65.5622 136.337 60.3043 136.468 60.2167Z" fill="#E1E1E1"/>
</g>
<g opacity="0.7">
<path d="M450.728 52.9684L450.463 85.3292L498.383 85.723L498.648 53.3623L450.728 52.9684Z" fill="#F5F5F5"/>
<path d="M498.786 53.749C498.649 53.9009 498.5 54.0416 498.34 54.1696L496.993 55.3438L491.999 59.5501L475.381 73.3431L475.241 73.457L475.101 73.3431L474.768 73.0714L457.8 59.1996L452.701 54.9583L451.337 53.784C451.17 53.6543 451.015 53.5107 450.873 53.3546C451.056 53.4574 451.229 53.5777 451.389 53.7139L452.815 54.8268L458.01 58.9542L475.039 72.7297L475.372 73.0013H475.092L491.806 59.3047L496.897 55.2036L498.288 54.1083C498.441 53.9718 498.608 53.8514 498.786 53.749Z" fill="#E1E1E1"/>
<path d="M450.603 85.7165C450.507 85.6377 454.155 81.2298 458.729 75.8756C463.303 70.5214 467.099 66.2363 467.195 66.3152C467.292 66.3941 463.644 70.8019 459.061 76.1561C454.478 81.5103 450.691 85.7954 450.603 85.7165Z" fill="#E1E1E1"/>
<path d="M483.123 66.0437C483.219 65.9648 486.744 70.4252 490.995 75.9459C495.246 81.4666 498.622 86.0321 498.526 86.111C498.429 86.1898 494.905 81.7295 490.654 76.2088C486.403 70.6881 483.027 66.1138 483.123 66.0437Z" fill="#E1E1E1"/>
</g>
<path d="M411.575 330.214V369.77H404.98V374.064H411.575V400.537H534.804V376.448H525.681V371.19H534.813V363.303H538.862V359.728H534.052V330.214H411.575Z" fill="#F5F5F5"/>
<path d="M502.076 330.328V400.099H534.797V376.009H525.674V371.199L534.797 371.365V363.496L538.934 363.505L538.855 359.43L534.036 359.316V330.214L502.076 330.328Z" fill="#E1E1E1"/>
<path d="M504.412 373.494C504.412 373.74 482.117 373.932 454.619 373.932C427.12 373.932 404.816 373.74 404.816 373.494C404.816 373.249 427.102 373.056 454.619 373.056C482.135 373.056 504.412 373.249 504.412 373.494Z" fill="#E1E1E1"/>
<path d="M504.412 369.472C504.412 369.717 482.117 369.91 454.619 369.91C427.12 369.91 404.816 369.717 404.816 369.472C404.816 369.226 427.102 369.034 454.619 369.034C482.135 369.034 504.412 369.235 504.412 369.472Z" fill="#E1E1E1"/>
<path d="M510.813 358.659C510.813 358.904 488.518 359.097 461.019 359.097C433.52 359.097 411.217 358.904 411.217 358.659C411.217 358.413 433.511 358.221 461.019 358.221C488.527 358.221 510.813 358.422 510.813 358.659Z" fill="#E1E1E1"/>
<path d="M511.425 388.129C511.425 388.374 489.121 388.567 461.623 388.567C434.124 388.567 411.82 388.374 411.82 388.129C411.82 387.883 434.115 387.69 461.623 387.69C489.13 387.69 511.425 387.892 511.425 388.129Z" fill="#E1E1E1"/>
<g opacity="0.5">
<path d="M343.199 114.136H520.087C521.458 114.136 522.816 114.406 524.083 114.932C525.35 115.458 526.501 116.229 527.471 117.2C528.441 118.172 529.21 119.325 529.735 120.595C530.26 121.864 530.53 123.225 530.53 124.599V253.047C530.53 257.412 528.799 261.598 525.719 264.684C522.638 267.77 518.46 269.504 514.104 269.504H346.863C344.706 269.504 342.57 269.078 340.577 268.251C338.585 267.424 336.774 266.212 335.249 264.684C333.723 263.156 332.513 261.342 331.688 259.345C330.862 257.348 330.438 255.208 330.438 253.047V126.921C330.438 125.242 330.768 123.579 331.409 122.028C332.05 120.477 332.99 119.068 334.175 117.88C335.36 116.693 336.767 115.751 338.315 115.109C339.863 114.466 341.523 114.136 343.199 114.136Z" fill="white"/>
<path d="M342.925 114.635H519.813C521.185 114.635 522.543 114.905 523.81 115.431C525.077 115.957 526.228 116.728 527.198 117.699C528.167 118.671 528.937 119.824 529.461 121.094C529.986 122.363 530.256 123.724 530.256 125.098V136.402H330.164V127.42C330.164 124.029 331.509 120.777 333.902 118.38C336.295 115.982 339.541 114.635 342.925 114.635Z" fill="#E1E1E1"/>
<path d="M344.369 125.878C344.371 126.438 344.206 126.986 343.897 127.453C343.588 127.919 343.147 128.283 342.631 128.499C342.115 128.714 341.547 128.772 340.998 128.664C340.449 128.555 339.945 128.286 339.549 127.891C339.153 127.495 338.883 126.991 338.774 126.442C338.664 125.893 338.719 125.323 338.933 124.805C339.147 124.288 339.509 123.845 339.973 123.534C340.438 123.222 340.985 123.056 341.544 123.056C342.292 123.056 343.009 123.353 343.538 123.882C344.068 124.411 344.367 125.128 344.369 125.878Z" fill="white"/>
<path d="M353.709 125.878C353.711 126.438 353.546 126.987 353.236 127.453C352.927 127.92 352.485 128.284 351.969 128.5C351.452 128.715 350.884 128.772 350.335 128.663C349.786 128.554 349.282 128.284 348.886 127.888C348.49 127.491 348.221 126.986 348.112 126.436C348.004 125.887 348.06 125.317 348.275 124.799C348.49 124.282 348.854 123.84 349.32 123.529C349.786 123.219 350.333 123.054 350.892 123.056C351.639 123.058 352.354 123.356 352.881 123.885C353.409 124.414 353.706 125.13 353.709 125.878Z" fill="white"/>
<path d="M363.06 125.878C363.062 126.438 362.898 126.986 362.588 127.452C362.279 127.919 361.839 128.283 361.322 128.499C360.806 128.714 360.238 128.772 359.689 128.663C359.141 128.555 358.637 128.286 358.241 127.891C357.845 127.495 357.575 126.991 357.465 126.442C357.355 125.892 357.411 125.323 357.624 124.805C357.838 124.288 358.2 123.845 358.665 123.534C359.13 123.222 359.676 123.056 360.235 123.056C360.983 123.056 361.7 123.353 362.23 123.882C362.759 124.411 363.058 125.128 363.06 125.878Z" fill="white"/>
<path d="M387.076 270.038C386.945 270.038 386.84 240.349 386.84 203.737C386.84 167.125 386.945 137.436 387.076 137.436C387.208 137.436 387.304 167.116 387.304 203.737C387.304 240.357 387.199 270.038 387.076 270.038Z" fill="#E1E1E1"/>
<path d="M377.333 157.188H341.543V161.815H377.333V157.188Z" fill="#E1E1E1"/>
<path d="M468.815 151.508H397.102V158.578H468.815V151.508Z" fill="#D0D0D0"/>
<path d="M491.491 169.815H396.496V174.442H491.491V169.815Z" fill="#E1E1E1"/>
<path d="M355.782 170.753H341.543V175.38H355.782V170.753Z" fill="#E1E1E1"/>
<path d="M355.782 183.836H341.543V188.463H355.782V183.836Z" fill="#E1E1E1"/>
<path d="M512.029 167.958H505.942C505.324 167.958 504.822 168.46 504.822 169.079V175.178C504.822 175.798 505.324 176.3 505.942 176.3H512.029C512.648 176.3 513.149 175.798 513.149 175.178V169.079C513.149 168.46 512.648 167.958 512.029 167.958Z" fill="#5CE0D8"/>
<path d="M506.465 172.085L508.415 173.846L511.931 170.403" stroke="white" stroke-linecap="round" stroke-linejoin="round"/>
<path d="M491.491 187.692H396.496V192.319H491.491V187.692Z" fill="#E1E1E1"/>
<path d="M512.029 185.834H505.942C505.324 185.834 504.822 186.336 504.822 186.956V193.055C504.822 193.674 505.324 194.177 505.942 194.177H512.029C512.648 194.177 513.149 193.674 513.149 193.055V186.956C513.149 186.336 512.648 185.834 512.029 185.834Z" stroke="#5CE0D8" stroke-miterlimit="10"/>
<path d="M491.491 205.568H396.496V210.195H491.491V205.568Z" fill="#E1E1E1"/>
<path d="M512.029 203.711H505.942C505.324 203.711 504.822 204.213 504.822 204.832V210.931C504.822 211.551 505.324 212.053 505.942 212.053H512.029C512.648 212.053 513.149 211.551 513.149 210.931V204.832C513.149 204.213 512.648 203.711 512.029 203.711Z" stroke="#5CE0D8" stroke-miterlimit="10"/>
<path d="M491.491 223.454H396.496V228.081H491.491V223.454Z" fill="#E1E1E1"/>
<path d="M512.029 221.596H505.942C505.324 221.596 504.822 222.098 504.822 222.718V228.817C504.822 229.436 505.324 229.938 505.942 229.938H512.029C512.648 229.938 513.149 229.436 513.149 228.817V222.718C513.149 222.098 512.648 221.596 512.029 221.596Z" stroke="#5CE0D8" stroke-miterlimit="10"/>
<path d="M491.491 241.331H396.496V245.957H491.491V241.331Z" fill="#E1E1E1"/>
<path d="M512.029 239.473H505.942C505.324 239.473 504.822 239.975 504.822 240.594V246.693C504.822 247.313 505.324 247.815 505.942 247.815H512.029C512.648 247.815 513.149 247.313 513.149 246.693V240.594C513.149 239.975 512.648 239.473 512.029 239.473Z" stroke="#5CE0D8" stroke-miterlimit="10"/>
</g>
<path opacity="0.5" d="M513.831 270.038H514.277C514.566 270.038 515.012 270.038 515.598 269.95C517.318 269.739 518.995 269.27 520.575 268.557C523.14 267.39 525.36 265.579 527.021 263.299C528.076 261.844 528.891 260.229 529.435 258.515C529.557 258.05 529.68 257.586 529.802 257.104C529.925 256.622 529.96 256.114 530.038 255.614C530.145 254.566 530.189 253.513 530.17 252.459C530.17 235.056 530.17 209.889 530.091 178.789C530.091 163.234 530.091 146.199 530.091 127.911C530.091 126.771 530.091 125.606 530.091 124.475C530.01 123.34 529.747 122.224 529.313 121.172C528.635 119.559 527.555 118.148 526.177 117.074C524.798 116 523.168 115.299 521.441 115.038C520.28 114.905 519.11 114.858 517.942 114.897H480.647H347.107C344.15 114.959 341.133 114.591 338.43 115.774C336.403 116.551 334.611 117.842 333.231 119.521C331.851 121.2 330.93 123.209 330.558 125.352C330.362 126.786 330.298 128.235 330.366 129.681V138.382C330.366 149.938 330.366 161.315 330.366 172.514C330.366 194.895 330.366 216.487 330.366 237.054C330.366 242.201 330.366 247.278 330.366 252.284C330.366 252.906 330.366 253.537 330.366 254.151C330.378 254.767 330.433 255.382 330.532 255.991L330.672 256.867L330.9 257.744C331.049 258.34 331.239 258.926 331.468 259.496C332.338 261.768 333.721 263.808 335.509 265.455C337.263 267.09 339.353 268.322 341.631 269.065C342.2 269.232 342.777 269.372 343.381 269.512C343.984 269.652 344.544 269.714 345.13 269.766C346.302 269.845 347.483 269.854 348.629 269.845H362.553H413.335L486.866 269.924L506.86 269.968H512.056H513.805H512.056H506.86L486.866 270.012L413.335 270.082H362.553H348.629C347.457 270.082 346.267 270.082 345.06 270.012C344.465 269.95 343.871 269.837 343.311 269.749C342.751 269.661 342.139 269.468 341.561 269.293C339.23 268.532 337.093 267.27 335.299 265.595C333.464 263.898 332.045 261.799 331.153 259.461C330.923 258.89 330.73 258.305 330.576 257.708L330.34 256.832L330.2 255.895C330.097 255.274 330.039 254.648 330.025 254.019C329.981 253.38 330.025 252.766 330.025 252.135V236.984C330.025 216.417 330.025 194.825 330.025 172.444V129.611C329.958 128.147 330.026 126.68 330.226 125.229C330.479 123.759 330.979 122.343 331.704 121.04C333.193 118.413 335.545 116.384 338.36 115.301C339.753 114.745 341.235 114.448 342.733 114.424C344.22 114.424 345.69 114.424 347.177 114.424H480.717H517.951C519.154 114.382 520.359 114.432 521.554 114.573C522.748 114.76 523.901 115.148 524.966 115.721C526.542 116.57 527.877 117.808 528.841 119.319C529.805 120.83 530.368 122.563 530.476 124.353C530.555 125.536 530.476 126.666 530.476 127.858C530.476 146.146 530.476 163.182 530.476 178.736C530.476 209.836 530.423 235.003 530.406 252.407C530.422 253.466 530.375 254.525 530.266 255.579C530.178 256.087 530.126 256.596 530.021 257.086C529.916 257.577 529.767 258.041 529.645 258.515C528.937 260.732 527.772 262.777 526.227 264.516C524.681 266.255 522.788 267.649 520.671 268.61C519.08 269.317 517.39 269.772 515.659 269.959C514.426 270.038 513.831 270.038 513.831 270.038Z" fill="#1A2E35"/>
<path opacity="0.5" d="M404.249 63.1584C410.443 40.9027 397.456 17.8303 375.243 11.6248C353.029 5.41926 330 18.4305 323.807 40.6862C317.613 62.9419 330.599 86.0143 352.813 92.2198C375.027 98.4253 398.055 85.4141 404.249 63.1584Z" fill="#F5F5F5"/>
<path opacity="0.5" d="M386.857 72.8699L380.734 65.7718V48.754C380.733 44.7692 379.305 40.9171 376.709 37.8974C374.114 34.8777 370.524 32.8906 366.591 32.2971V25.1902H362.122V32.2007C358.08 32.6792 354.354 34.6272 351.651 37.6751C348.947 40.723 347.454 44.6589 347.454 48.7365V64.9831L341.244 72.8699H358.169C358.572 73.9424 359.231 74.8996 360.089 75.6576C360.947 76.4156 361.978 76.9512 363.091 77.2176C364.203 77.4839 365.364 77.4729 366.471 77.1855C367.579 76.8981 368.599 76.343 369.443 75.5689C370.25 74.8228 370.867 73.8944 371.244 72.8611L386.857 72.8699Z" fill="#375A64"/>
<path opacity="0.5" d="M395.229 40.6748C395.229 42.774 394.607 44.8261 393.443 46.5714C392.279 48.3167 390.624 49.6769 388.688 50.4798C386.752 51.2828 384.622 51.4924 382.567 51.0822C380.512 50.6721 378.625 49.6605 377.144 48.1755C375.663 46.6905 374.655 44.7988 374.247 42.7397C373.84 40.6806 374.051 38.5466 374.854 36.6076C375.657 34.6687 377.016 33.0119 378.759 31.8469C380.502 30.6819 382.55 30.061 384.646 30.0627C386.036 30.0627 387.413 30.3373 388.698 30.8707C389.982 31.4041 391.149 32.1859 392.132 33.1715C393.115 34.157 393.894 35.3269 394.426 36.6144C394.957 37.9018 395.23 39.2816 395.229 40.6748Z" fill="#5CE0D8"/>
<path opacity="0.5" d="M386.002 35.5784L383.875 35.5601L383.811 45.0763L385.938 45.0946L386.002 35.5784Z" fill="white"/>
<path opacity="0.5" d="M380.167 39.2381L380.152 41.3655L389.668 41.4473L389.683 39.3199L380.167 39.2381Z" fill="white"/>
<path d="M62.121 360.595C62.121 360.595 56.1384 319.409 56.6369 295.46C57.1355 271.51 56.6369 244.538 56.6369 244.538H59.3921C59.3921 244.538 57.5291 292.103 59.5582 320.776C61.5874 349.449 66.9315 360.586 66.9315 360.586H62.121" fill="#1A2E35"/>
<path d="M79.9125 198.181C79.4847 196.72 78.606 195.431 77.4023 194.501C75.653 193.388 73.3614 193.852 71.411 194.545C63.0931 197.489 55.6674 213.043 52.3438 221.219L63.3993 258.523C83.3411 240.016 86.796 215.707 79.9125 198.181Z" fill="#375A64"/>
<path d="M76.7545 196.034C76.7265 196.205 76.6734 196.37 76.5971 196.525L76.0548 197.883C75.5738 199.057 74.8915 200.766 74.0781 202.878C72.4513 207.119 70.3784 213.043 68.5241 219.712C66.6699 226.381 65.4104 232.532 64.6232 237.01C64.2296 239.245 63.9323 241.059 63.7486 242.312L63.5124 243.758C63.4931 243.928 63.455 244.095 63.3987 244.257C63.3775 244.088 63.3775 243.918 63.3987 243.749C63.3987 243.363 63.4862 242.873 63.5474 242.285C63.6874 241.024 63.9323 239.201 64.2909 236.958C65.2233 231.101 66.4848 225.303 68.0693 219.589C69.6543 213.879 71.5552 208.262 73.7633 202.764C74.6379 200.652 75.3376 198.961 75.8712 197.813C76.1248 197.27 76.3347 196.832 76.4921 196.481C76.5647 196.324 76.6526 196.174 76.7545 196.034Z" fill="#1A2E35"/>
<path d="M58.4815 267.497C48.1258 261.766 42.0032 250.978 41.4522 239.131C41.0499 230.85 43.5951 222.726 46.4639 214.962C46.6449 214.262 47.0582 213.644 47.636 213.21C48.5106 212.719 49.5952 213.157 50.4611 213.657C57.9917 217.951 62.5486 226.135 64.9714 234.46C66.7306 239.982 67.3263 245.81 66.7207 251.574C65.7761 257.632 62.9012 263.22 58.5253 267.505" fill="#375A64"/>
<path d="M58.4831 267.497C58.4628 267.331 58.4628 267.163 58.4831 266.997C58.4831 266.62 58.4831 266.121 58.4831 265.569C58.4831 264.325 58.4307 262.528 58.3344 260.311C58.0355 254.535 57.3929 248.782 56.4102 243.083C55.2557 236.397 53.865 230.412 52.8417 226.091C52.3344 223.971 51.9146 222.236 51.6084 220.965C51.486 220.381 51.381 219.916 51.2936 219.572C51.2442 219.413 51.2177 219.248 51.2148 219.081C51.285 219.23 51.3407 219.386 51.381 219.545C51.486 219.914 51.6172 220.369 51.7834 220.921C52.1245 222.122 52.5968 223.857 53.1478 226.013C54.2586 230.324 55.7018 236.3 56.8563 243.004C57.8377 248.723 58.4222 254.503 58.6056 260.302C58.6668 262.528 58.6756 264.333 58.6056 265.56C58.6056 266.138 58.6056 266.612 58.5444 266.988C58.5468 267.16 58.5262 267.331 58.4831 267.497Z" fill="#1A2E35"/>
<g opacity="0.3">
<path opacity="0.3" d="M58.4815 267.496C48.1258 261.765 42.0032 250.978 41.4522 239.131C41.0499 230.85 43.5951 222.726 46.4639 214.962C46.6449 214.262 47.0582 213.644 47.636 213.21C48.5106 212.719 49.5952 213.157 50.4611 213.656C57.9917 217.95 62.5486 226.135 64.9714 234.46C66.7306 239.982 67.3263 245.81 66.7207 251.574C65.7761 257.631 62.9012 263.22 58.5253 267.505" fill="black"/>
</g>
<path d="M70.168 330.503C80.3663 332.746 88.7629 339.95 98.5939 343.455C105.101 345.777 112.457 346.592 117.652 351.149C116.41 348.003 113.454 345.891 110.585 344.138C102.503 339.063 93.8734 334.918 84.862 331.782C80.2351 330.179 75.2409 328.838 70.5003 330.161" fill="#375A64"/>
<path d="M55.4285 339.608C42.6587 339.397 29.1892 328.505 16.5156 327.856C29.8102 323.554 48.8775 327.068 55.4285 339.608Z" fill="#375A64"/>
<path d="M60.4169 308.919C66.9067 306.58 74.0176 306.466 80.8311 307.526C87.6445 308.586 94.2219 310.777 100.755 312.95C100.099 308.516 96.5134 305.178 93.146 302.224C90.6799 299.928 88 297.874 85.1431 296.09C82.2591 294.287 78.9216 293.344 75.522 293.374C73.4885 293.51 71.503 294.054 69.6835 294.973C67.864 295.893 66.2475 297.17 64.93 298.728C62.3529 301.552 60.76 305.137 60.3906 308.946" fill="#375A64"/>
<path d="M34.2201 294.794C26.1822 287.924 14.0071 288.598 3.44141 288.835C19.6835 296.617 37.1852 307.281 51.1707 318.629C51.6256 311.146 44.366 303.478 34.2201 294.794Z" fill="#375A64"/>
<g opacity="0.3">
<path opacity="0.3" d="M34.2201 294.794C26.1822 287.924 14.0071 288.598 3.44141 288.835C19.6835 296.617 37.1852 307.281 51.1707 318.629C51.6256 311.146 44.366 303.478 34.2201 294.794Z" fill="black"/>
</g>
<path d="M64.0354 285.303C67.9569 282.579 72.0897 280.173 76.3941 278.109C80.6186 276.181 84.572 273.114 88.6391 270.897C93.887 268.023 98.5226 264.035 103.386 260.469C108.249 256.902 113.593 253.686 119.54 252.749C114.639 251.882 109.602 252.182 104.838 253.625C100.088 255.05 95.4557 256.844 90.9832 258.988C84.712 261.818 78.3358 264.719 73.2104 269.311C68.085 273.903 63.4581 278.442 64.0004 285.303" fill="#375A64"/>
<path d="M98.3577 339.608C98.2189 339.561 98.0843 339.502 97.9554 339.432L96.8446 338.854C95.8825 338.337 94.5006 337.583 92.76 336.707C91.8854 336.251 90.9495 335.769 89.9174 335.287C88.8853 334.805 87.7745 334.271 86.6025 333.763C84.0611 332.626 81.4277 331.708 78.7307 331.02C76.057 330.28 73.2433 330.208 70.5353 330.809C69.3441 331.067 68.1745 331.415 67.0367 331.852C66.0613 332.249 65.1219 332.73 64.2291 333.289C62.9443 334.11 61.7686 335.09 60.7305 336.208C59.9871 336.996 59.6285 337.487 59.6023 337.461C59.576 337.434 59.6635 337.32 59.8297 337.084C59.9958 336.847 60.2495 336.505 60.5993 336.085C61.6163 334.903 62.7941 333.871 64.0979 333.018C64.9933 332.425 65.942 331.917 66.9318 331.502C68.067 331.044 69.2369 330.678 70.4303 330.406C73.1997 329.763 76.0852 329.82 78.8269 330.573C81.546 331.271 84.1979 332.209 86.7512 333.377C87.932 333.903 89.0428 334.42 90.0661 334.946C91.0894 335.471 92.0428 335.945 92.8912 336.418C94.6405 337.294 95.9787 338.17 96.9146 338.696L97.9816 339.353C98.244 339.502 98.3665 339.59 98.3577 339.608Z" fill="#1A2E35"/>
<path d="M45.9048 333.263C46.1819 333.308 46.4522 333.387 46.7094 333.5C47.4189 333.753 48.1139 334.046 48.7911 334.376C53.3059 336.66 57.0347 340.246 59.4967 344.673C59.8715 345.333 60.2017 346.018 60.4851 346.723C60.6149 346.97 60.7035 347.236 60.7475 347.512C60.6775 347.512 60.1964 346.46 59.2168 344.839C57.9395 342.725 56.3929 340.787 54.6162 339.073C52.8324 337.363 50.8364 335.891 48.6774 334.692C46.9806 333.771 45.8785 333.342 45.9048 333.263Z" fill="#1A2E35"/>
<path d="M17.6621 294.154C17.8477 294.188 18.0293 294.241 18.2044 294.312L19.735 294.864L22.149 295.74C23.0937 296.09 24.117 296.616 25.2715 297.116C31.2593 299.893 36.8484 303.462 41.8898 307.728C44.6401 310.099 47.229 312.652 49.6391 315.369C51.5915 317.61 53.4277 319.95 55.1406 322.38C56.5925 324.448 57.7033 326.174 58.4555 327.366L59.3302 328.741C59.4406 328.896 59.5371 329.06 59.6188 329.232C59.4804 329.103 59.3598 328.955 59.2602 328.794C59.0328 328.496 58.7092 328.049 58.3068 327.462C57.5109 326.305 56.3651 324.605 54.8782 322.572C53.3913 320.539 51.5196 318.191 49.3242 315.676C46.9055 312.992 44.3233 310.46 41.5924 308.096C36.5709 303.863 31.0376 300.28 25.1228 297.431C23.9858 296.905 22.9712 296.371 22.0441 296.003L19.665 295.039L18.1607 294.408C17.985 294.343 17.8177 294.258 17.6621 294.154Z" fill="#1A2E35"/>
<path d="M79.6134 301.734C79.269 301.722 78.9265 301.678 78.5901 301.603L77.4181 301.384C76.9632 301.296 76.4297 301.287 75.8524 301.235C72.8301 300.976 69.7967 301.584 67.106 302.987C65.6248 303.755 64.2755 304.755 63.1089 305.949C62.1373 306.909 61.2776 307.976 60.5462 309.13C59.8819 310.205 59.2972 311.326 58.7969 312.486C58.8346 312.142 58.923 311.806 59.0593 311.487C59.383 310.609 59.7901 309.764 60.275 308.964C60.9846 307.762 61.8394 306.652 62.8202 305.66C64.4848 303.898 66.5392 302.551 68.8179 301.729C71.0966 300.907 73.536 300.633 75.9399 300.928C76.5259 301.007 77.0682 301.033 77.523 301.147L78.695 301.445C79.0116 301.504 79.32 301.601 79.6134 301.734Z" fill="#1A2E35"/>
<path d="M92.4102 261.845C92.2627 261.964 92.1011 262.064 91.9291 262.143L90.5035 262.923C89.2615 263.589 87.4772 264.579 85.3168 265.858C83.1565 267.138 80.62 268.741 77.9173 270.678C74.9668 272.74 72.2038 275.06 69.6607 277.609C68.3458 278.913 67.2104 280.386 66.2846 281.991C65.4099 283.595 64.649 285.154 63.9143 286.644C62.5903 289.276 61.4049 291.976 60.3632 294.732C59.6629 296.596 59.0786 298.501 58.6139 300.437C58.2816 301.804 58.1679 302.575 58.1241 302.566C58.1183 302.375 58.1359 302.184 58.1766 301.997C58.1766 301.629 58.2991 301.121 58.439 300.393C58.8356 298.437 59.3675 296.51 60.0309 294.627C61.0448 291.842 62.2128 289.115 63.5294 286.46C64.2554 284.962 65.0426 283.393 65.8735 281.781C66.82 280.14 67.9787 278.631 69.3196 277.294C71.8845 274.726 74.6774 272.397 77.6637 270.336C80.3926 268.408 82.964 266.831 85.1419 265.578C87.3198 264.325 89.1478 263.387 90.3898 262.765L91.8592 262.064C92.0348 261.972 92.2195 261.899 92.4102 261.845Z" fill="#1A2E35"/>
<path d="M56.6098 300.577C56.4818 300.229 56.3967 299.867 56.3562 299.499C56.2075 298.711 56.0151 297.747 55.7964 296.546C55.1796 293.289 54.3736 290.07 53.3824 286.907C52.3468 283.771 51.129 280.699 49.7351 277.706C49.2366 276.619 48.8605 275.699 48.4931 274.972C48.316 274.644 48.178 274.297 48.082 273.938C48.3026 274.236 48.493 274.556 48.6506 274.893C48.9917 275.515 49.464 276.426 50.0237 277.574C51.512 280.54 52.7779 283.613 53.811 286.767C54.8199 289.932 55.5888 293.169 56.1113 296.45C56.3124 297.712 56.4524 298.728 56.5311 299.438C56.5949 299.814 56.6213 300.196 56.6098 300.577Z" fill="#1A2E35"/>
<path d="M55.682 271.475C55.2774 266.631 53.862 261.926 51.5275 257.664C48.3793 251.8 43.9865 246.698 38.6583 242.718C33.33 238.738 27.1959 235.976 20.6875 234.626L49.2446 277.259L52.9269 284.874C55.4459 280.737 55.9969 276.312 55.682 271.475Z" fill="#375A64"/>
<path d="M96.6442 355.504H30.25V367.29H96.6442V355.504Z" fill="#5CE0D8"/>
<path d="M35.207 364.959L40.8572 401.536H84.9305L91.6828 364.959H35.207Z" fill="#5CE0D8"/>
<path d="M96.6001 367.307C96.6001 367.439 81.6262 367.535 63.1624 367.535C44.6987 367.535 29.7598 367.439 29.7598 367.307C29.7598 367.176 44.7249 367.071 63.2062 367.071C81.6874 367.071 96.6001 367.176 96.6001 367.307Z" fill="#1A2E35"/>
<path d="M149.193 154.725C148.002 154.136 146.946 153.307 146.091 152.289C145.236 151.271 144.601 150.086 144.225 148.81C146.288 148.34 148.138 147.202 149.49 145.572C150.842 143.942 151.62 141.911 151.703 139.793C151.703 137.077 150.61 134.535 149.823 131.906C149.036 129.278 148.607 126.359 149.937 124.02C152.184 120.05 157.109 118.876 159.969 115.327C162.155 112.602 162.934 109.64 163.721 106.231C164.723 102.385 167 98.9936 170.178 96.6147C173.357 94.2358 177.248 93.0101 181.214 93.1389C184.712 93.358 188.167 94.6549 191.648 94.2606C196.441 93.726 200.325 90.1069 204.96 88.7924C207.231 88.1728 209.617 88.1096 211.918 88.6084C214.218 89.1071 216.364 90.1531 218.176 91.6579C220.73 93.8224 222.497 96.8544 225.173 98.8348C228.121 100.999 231.856 101.683 235.267 102.989C238.678 104.294 242.142 106.669 242.789 110.271C243.48 114.153 240.672 118.315 242.238 121.934C242.964 123.617 245.833 126.5 246.419 128.235C249.121 136.227 243.016 141.563 244.031 144.718C249.357 161.368 242.85 168.527 237.366 169.149L169.013 167.695C166.574 168.699 163.957 169.196 161.322 169.153C158.686 169.11 156.086 168.529 153.682 167.446C151.277 166.362 149.119 164.799 147.338 162.851C145.557 160.904 144.191 158.613 143.324 156.119C145.371 156.206 147.403 155.724 149.193 154.725Z" fill="#E1E1E1"/>
<path d="M166.781 155.873C166.423 155.707 152.455 151.352 152.664 165.714C152.874 180.077 167.219 176.905 167.236 176.493C167.253 176.081 166.781 155.873 166.781 155.873Z" fill="#FFBF9D"/>
<path d="M162.784 171.112C162.714 171.068 162.53 171.296 162.11 171.498C161.521 171.76 160.853 171.782 160.247 171.559C158.725 171.024 157.413 168.632 157.308 166.047C157.256 164.816 157.477 163.589 157.956 162.454C158.084 162.003 158.319 161.591 158.642 161.252C158.965 160.913 159.366 160.658 159.81 160.509C160.095 160.43 160.399 160.453 160.669 160.574C160.939 160.696 161.158 160.908 161.288 161.175C161.489 161.569 161.402 161.858 161.48 161.885C161.559 161.911 161.786 161.639 161.655 161.008C161.566 160.66 161.363 160.351 161.078 160.132C160.679 159.843 160.184 159.72 159.696 159.79C159.111 159.918 158.567 160.193 158.116 160.588C157.665 160.983 157.321 161.487 157.116 162.051C156.526 163.306 156.249 164.687 156.311 166.073C156.442 168.965 157.964 171.647 160.046 172.207C160.431 172.317 160.836 172.337 161.231 172.266C161.625 172.194 161.997 172.034 162.32 171.796C162.757 171.463 162.827 171.138 162.784 171.112Z" fill="#FF9A6C"/>
<path d="M239.393 185.186C239.691 175.047 238.615 154.13 237.425 135.236C236.809 125.42 232.526 116.196 225.429 109.4C218.332 102.604 208.94 98.7354 199.125 98.5632H197.104C175.282 99.4395 163.868 118.534 165.337 140.363L167.27 226.792L196.553 252.267L217.807 225.294V209.074C217.807 209.074 238.798 206.173 239.393 185.186Z" fill="#FFBF9D"/>
<path d="M217.809 209.065C217.809 209.065 204.541 209.941 190.625 200.802C190.625 200.802 196.669 216.26 217.608 214.735L217.809 209.065Z" fill="#FF9A6C"/>
<path d="M231.208 151.203C231.204 151.985 230.893 152.734 230.344 153.289C229.795 153.845 229.05 154.162 228.269 154.173C227.889 154.197 227.507 154.144 227.147 154.018C226.787 153.892 226.456 153.695 226.173 153.438C225.891 153.182 225.662 152.871 225.501 152.525C225.339 152.179 225.249 151.804 225.234 151.422C225.241 150.64 225.552 149.891 226.1 149.335C226.649 148.779 227.393 148.458 228.173 148.442C228.555 148.419 228.937 148.472 229.297 148.599C229.658 148.726 229.989 148.924 230.272 149.181C230.555 149.438 230.784 149.75 230.944 150.097C231.105 150.444 231.195 150.82 231.208 151.203Z" fill="#1A2E35"/>
<path d="M199.564 151.203C199.559 151.985 199.249 152.734 198.7 153.289C198.15 153.845 197.405 154.162 196.625 154.173C196.244 154.197 195.863 154.144 195.503 154.018C195.143 153.892 194.812 153.695 194.529 153.438C194.246 153.182 194.017 152.871 193.856 152.525C193.695 152.179 193.604 151.804 193.59 151.422C193.597 150.64 193.907 149.891 194.456 149.335C195.005 148.779 195.748 148.458 196.529 148.442C196.91 148.419 197.292 148.472 197.653 148.599C198.013 148.726 198.345 148.924 198.628 149.181C198.911 149.438 199.139 149.75 199.3 150.097C199.461 150.444 199.55 150.82 199.564 151.203Z" fill="#1A2E35"/>
<path d="M231.986 144.648C231.609 145.025 229.362 143.307 226.152 143.263C222.942 143.22 220.545 144.788 220.204 144.385C220.029 144.21 220.423 143.509 221.464 142.773C222.875 141.829 224.543 141.345 226.239 141.388C227.914 141.412 229.538 141.971 230.875 142.983C231.854 143.763 232.178 144.473 231.986 144.648Z" fill="#1A2E35"/>
<path d="M198.993 144.455C198.59 144.814 196.465 142.956 193.255 142.702C190.045 142.448 187.561 143.868 187.246 143.447C187.089 143.254 187.518 142.571 188.611 141.914C190.077 141.065 191.769 140.689 193.456 140.836C195.128 140.967 196.714 141.627 197.987 142.72C198.905 143.561 199.185 144.288 198.993 144.455Z" fill="#1A2E35"/>
<path d="M212.341 169.561C212.341 169.377 214.344 169.07 217.589 168.685C218.42 168.615 219.198 168.466 219.338 167.905C219.422 167.054 219.245 166.198 218.831 165.451C218.096 163.445 217.318 161.341 216.513 159.133C213.286 150.142 210.968 142.755 211.335 142.632C211.703 142.51 214.598 149.687 217.825 158.677C218.595 160.895 219.338 163.006 220.038 165.031C220.335 165.977 220.851 167.046 220.414 168.273C220.289 168.561 220.1 168.817 219.863 169.022C219.625 169.227 219.344 169.375 219.041 169.456C218.583 169.569 218.113 169.625 217.641 169.623C214.379 169.771 212.358 169.745 212.341 169.561Z" fill="#1A2E35"/>
<path d="M199.535 133.186C199.133 134.062 195.975 133.291 192.171 133.361C188.366 133.431 185.217 134.15 184.798 133.317C184.614 132.923 185.226 132.152 186.547 131.433C188.287 130.563 190.201 130.102 192.146 130.083C194.09 130.065 196.013 130.491 197.769 131.328C199.089 132.029 199.71 132.783 199.535 133.186Z" fill="#E1E1E1"/>
<path d="M232.414 134.15C231.837 134.868 229.633 134.071 226.965 133.992C224.297 133.913 222.023 134.395 221.516 133.624C221.297 133.247 221.665 132.52 222.662 131.871C223.998 131.067 225.543 130.679 227.1 130.755C228.657 130.832 230.157 131.369 231.408 132.301C232.37 133.037 232.676 133.799 232.414 134.15Z" fill="#E1E1E1"/>
<path d="M215.331 95.8204C207.459 92.3853 199.298 93.7523 190.762 94.6987C184.182 95.2824 177.86 97.5385 172.394 101.253C163.578 107.3 158.96 117.272 158.12 127.946C157.28 138.619 158.89 147.96 161.208 158.415C160.595 161.044 159.983 163.751 160.805 166.301C161.627 168.851 164.453 170.92 166.928 169.938C169.814 168.79 170.05 164.864 169.902 161.762C169.497 151.271 169.834 140.764 170.907 130.32C171.633 122.513 176.426 113.101 182.654 109.605C196.648 101.841 206.969 109.605 211.675 111.515C219.415 105.328 227.681 109.324 232.08 115.082C230.716 106.573 223.211 99.2643 215.331 95.8204Z" fill="#E1E1E1"/>
<path d="M153.346 120.742C153.346 121.224 154.22 121.82 156.101 122.11C158.717 122.386 161.362 122.087 163.85 121.233C167.41 120.028 170.791 118.345 173.9 116.23C177.328 113.995 180.766 111.401 184.396 109.324C187.568 107.355 191.169 106.185 194.891 105.915C197.939 105.796 200.977 106.315 203.813 107.44C208.833 109.394 211.405 112.172 212.305 111.524C212.515 111.384 212.577 111.051 212.489 110.542C212.347 109.831 212.084 109.149 211.711 108.527C210.363 106.235 208.496 104.293 206.262 102.857C202.882 100.6 198.95 99.312 194.891 99.1329C192.452 99.0388 190.013 99.3346 187.667 100.009C185.254 100.709 182.934 101.697 180.757 102.954C176.957 105.273 173.337 107.877 169.929 110.744C167.358 112.858 164.633 114.776 161.777 116.484C159.864 117.585 157.863 118.525 155.795 119.297C154.325 119.822 153.381 120.19 153.346 120.742Z" fill="#F5F5F5"/>
<path d="M152.795 133.379C153.728 133.766 154.724 133.977 155.734 134.001C160.651 134.379 165.521 132.805 169.291 129.619C170.102 129.015 170.786 128.256 171.302 127.385C170.49 127.951 169.71 128.562 168.967 129.216C165.159 132.07 160.515 133.58 155.76 133.51C154.775 133.413 153.785 133.369 152.795 133.379Z" fill="white"/>
<path d="M145.991 148.889C146.396 148.863 146.795 148.772 147.172 148.618C147.915 148.399 148.973 148.022 150.268 147.496C156.993 144.703 163.007 140.432 167.866 135C168.603 134.187 169.298 133.336 169.947 132.45C170.402 131.819 170.638 131.46 170.595 131.425C170.551 131.389 169.414 132.669 167.49 134.649C162.479 139.803 156.572 143.996 150.058 147.023C147.556 148.179 145.956 148.775 145.991 148.889Z" fill="white"/>
<path d="M199.895 92.6921C199.895 92.8061 201.198 93.2617 203.253 94.2257C205.939 95.4112 208.342 97.1557 210.303 99.3433C212.201 101.572 213.26 104.397 213.294 107.326C213.217 108.54 213.021 109.744 212.708 110.919C212.708 110.919 212.953 110.639 213.207 110.043C213.558 109.183 213.765 108.271 213.819 107.344C213.937 104.247 212.881 101.219 210.863 98.8701C208.84 96.5956 206.303 94.8405 203.463 93.7525C202.334 93.2208 201.131 92.8633 199.895 92.6921Z" fill="white"/>
<path d="M208.264 87.7673C208.195 87.8725 209.454 88.6436 211.028 90.2648C213.107 92.4039 214.551 95.0797 215.2 97.9935C215.848 100.907 215.676 103.944 214.702 106.766C213.976 108.939 213.145 110.131 213.259 110.201C213.372 110.271 213.539 109.955 213.915 109.412C214.426 108.635 214.854 107.807 215.192 106.941C216.343 104.047 216.596 100.872 215.919 97.8319C215.242 94.7914 213.665 92.026 211.396 89.8967C210.725 89.2515 209.986 88.6815 209.192 88.1967C208.623 87.8725 208.291 87.7673 208.264 87.7673Z" fill="white"/>
<path d="M161.192 161.753C161.192 161.937 163.755 161.753 166.317 160.053C168.88 158.353 170.096 156.101 169.93 156.031C169.764 155.961 168.355 157.863 165.915 159.44C163.475 161.017 161.148 161.534 161.192 161.753Z" fill="white"/>
<path d="M160.266 164.707C160.266 164.891 163.047 165.075 166.021 163.488C168.995 161.902 170.447 159.501 170.28 159.422C170.114 159.344 168.531 161.377 165.68 162.831C162.828 164.286 160.248 164.479 160.266 164.707Z" fill="white"/>
<path d="M233.865 118.499C234.599 118.454 235.307 118.209 235.912 117.789C237.438 116.888 238.708 115.609 239.598 114.074C240.488 112.539 240.968 110.801 240.993 109.026C241.053 108.294 240.917 107.559 240.6 106.897C240.502 107.596 240.458 108.302 240.469 109.009C240.312 110.668 239.799 112.273 238.964 113.714C238.125 115.153 236.989 116.396 235.632 117.36C234.582 118.078 233.821 118.385 233.865 118.499Z" fill="white"/>
<path d="M231.558 113.995C231.698 114.126 233.543 112.242 235.127 109.482C236.71 106.722 237.383 104.172 237.2 104.11C237.016 104.049 236.045 106.406 234.488 109.114C232.931 111.822 231.401 113.855 231.558 113.995Z" fill="white"/>
<path d="M181.197 145.603C181.109 145.726 182.072 146.479 183.453 147.023C184.835 147.566 186.077 147.654 186.077 147.505C186.077 147.356 184.984 147.014 183.663 146.488C182.343 145.962 181.284 145.498 181.197 145.603Z" fill="#FF9A6C"/>
<path d="M178.93 148.802C178.93 148.959 180.347 149.003 182.061 148.889C183.775 148.775 185.166 148.565 185.157 148.407C185.148 148.25 183.74 148.214 182.026 148.32C180.312 148.425 178.921 148.644 178.93 148.802Z" fill="#FF9A6C"/>
<path d="M233.455 151.01C233.455 151.168 234.225 151.299 235.204 151.308C236.184 151.317 236.954 151.194 236.954 151.036C236.954 150.878 236.184 150.747 235.204 150.738C234.225 150.729 233.464 150.861 233.455 151.01Z" fill="#FF9A6C"/>
<path d="M234.26 149.38C234.347 149.52 235.003 149.266 235.729 148.828C236.455 148.39 236.989 147.952 236.91 147.785C236.831 147.619 236.166 147.899 235.44 148.337C234.714 148.775 234.181 149.249 234.26 149.38Z" fill="#FF9A6C"/>
<path d="M201.189 120.786C201.189 120.874 202.195 121.102 203.761 121.724C205.327 122.346 207.408 123.398 209.805 124.441C211.848 125.388 214.062 125.91 216.312 125.974C216.994 125.977 217.673 125.891 218.332 125.72C218.805 125.597 219.041 125.483 219.032 125.448C219.023 125.413 217.991 125.659 216.321 125.571C214.141 125.39 212.009 124.826 210.023 123.906C207.671 122.89 205.536 121.855 203.901 121.338C203.039 120.989 202.119 120.802 201.189 120.786Z" fill="#FF9A6C"/>
<path d="M205.414 120.304C205.335 120.418 208.038 121.917 211.79 122.451C215.542 122.986 218.551 122.355 218.507 122.223C218.463 122.092 215.498 122.434 211.869 121.881C208.239 121.329 205.484 120.138 205.414 120.304Z" fill="#FF9A6C"/>
<path d="M198.793 172.435C198.933 172.514 199.432 171.279 200.787 170.735C202.143 170.192 203.359 170.735 203.411 170.595C203.464 170.455 203.201 170.288 202.685 170.122C201.995 169.905 201.251 169.933 200.579 170.201C199.907 170.469 199.347 170.961 198.994 171.594C198.741 172.076 198.723 172.418 198.793 172.435Z" fill="#FF9A6C"/>
<path d="M196.073 171.787C196.221 171.831 196.545 170.455 197.909 169.605C199.274 168.755 200.63 168.974 200.647 168.817C200.665 168.659 200.35 168.562 199.772 168.519C199.007 168.488 198.251 168.699 197.612 169.123C196.958 169.537 196.455 170.152 196.178 170.876C195.941 171.41 196.003 171.778 196.073 171.787Z" fill="#FF9A6C"/>
<path d="M172.125 226.565C172.125 226.565 172.37 226.565 172.729 226.328C173.216 225.967 173.577 225.461 173.761 224.882C174.018 224.061 174.188 223.215 174.268 222.358C174.293 221.88 174.422 221.412 174.645 220.989C174.869 220.565 175.182 220.195 175.562 219.905C176.437 219.37 177.557 219.265 178.387 218.608C179.102 218.056 179.626 217.293 179.883 216.426C180.033 216.045 180.099 215.637 180.077 215.228C180.054 214.82 179.943 214.421 179.752 214.06C179.808 214.814 179.722 215.572 179.498 216.294C179.219 217.05 178.723 217.705 178.073 218.178C177.373 218.722 176.323 218.801 175.256 219.414C174.752 219.736 174.36 220.208 174.137 220.764C173.939 221.249 173.81 221.759 173.752 222.28C173.697 223.112 173.571 223.939 173.376 224.751C173.18 225.482 172.738 226.122 172.125 226.565Z" fill="#FF9A6C"/>
<path d="M167.27 225.014C168.092 224.825 168.82 224.35 169.325 223.673C169.925 222.975 170.34 222.137 170.532 221.237C170.648 220.705 170.68 220.158 170.628 219.616C170.576 219.055 170.453 218.511 170.427 217.977C170.441 217.48 170.572 216.993 170.811 216.557C171.05 216.122 171.389 215.749 171.8 215.471C172.16 215.158 172.502 214.824 172.824 214.472C173.111 214.139 173.323 213.747 173.445 213.324C173.557 213.023 173.598 212.699 173.563 212.38C173.528 212.06 173.419 211.753 173.243 211.484C172.928 211.133 172.657 211.116 172.657 211.142C172.657 211.168 172.859 211.282 173.06 211.606C173.173 211.855 173.231 212.126 173.231 212.399C173.231 212.673 173.173 212.943 173.06 213.192C172.932 213.55 172.732 213.878 172.474 214.156C172.185 214.454 171.826 214.752 171.45 215.033C171.027 215.369 170.653 215.765 170.34 216.207C169.991 216.722 169.822 217.338 169.858 217.959C169.858 218.573 170.016 219.125 170.077 219.633C170.132 220.121 170.112 220.615 170.016 221.097C169.862 221.924 169.518 222.704 169.01 223.375C168.493 223.984 167.909 224.534 167.27 225.014Z" fill="#FF9A6C"/>
<path d="M215 177.439C211.038 190.382 199.466 178.815 206.533 173.654C209.63 174.153 212.481 175.976 215.464 176.975" fill="#FF9A6C"/>
<path d="M212.097 183.424C207.898 184.397 202.213 179.481 205.843 174.433C207.592 173.925 211.091 176.466 212.893 176.764C217.939 178.675 218.14 178.254 213.251 175.888C211.038 175.134 208.239 172.839 205.633 172.961C199.878 177.15 206.499 186.965 212.097 183.424Z" fill="#1A2E35"/>
<path d="M166.922 214.367L185.115 232.76L217.512 212.342L226.993 229.316L210.908 420.052L144.785 420.596L149.176 245.957L166.922 214.367Z" fill="#F5F5F5"/>
<path d="M62.1202 420.595L58.3242 379.637L96.1351 248.192L108.433 295.573C108.433 295.573 116.304 378.489 116.304 380.18C116.304 381.872 106.736 397.706 106.736 397.706L109.683 420.613L62.1202 420.595Z" fill="#1A2E35"/>
<path d="M168.136 213.385L147.906 229.588L96.1094 248.209L106.054 301.208L115.194 382.88L116.646 420.561H158.332L161.384 351.964C161.384 351.964 153.696 253.818 157.632 235.748L168.136 213.385Z" fill="#1A2E35"/>
<path d="M217.51 212.342L236.752 225.645L261.539 236.362C261.539 236.362 288.242 242.242 287.114 243.933C285.985 245.624 278.429 338.46 278.429 338.46L280.93 420.595H193.422V383.581L220.597 239.779L217.51 212.342Z" fill="#1A2E35"/>
<path d="M106.527 397.978C106.361 398.083 104.909 396.041 102.416 392.887C99.2649 388.743 95.5359 385.075 91.3433 381.994C87.1288 378.987 82.2074 377.127 77.0603 376.596C73.0982 376.272 70.6492 376.973 70.6055 376.728C70.6055 376.649 71.1652 376.395 72.276 376.123C73.8582 375.758 75.4817 375.605 77.1041 375.667C82.5031 375.933 87.71 377.759 92.0955 380.925C96.4096 384.057 100.152 387.911 103.16 392.317C105.486 395.7 106.658 397.917 106.527 397.978Z" fill="#375A64"/>
<path d="M109.351 385.246C109.028 385.526 104.978 379.383 97.5 374.826C90.0218 370.27 82.7797 369.323 82.8759 368.903C82.8759 368.754 84.7214 368.745 87.5903 369.358C95.1388 371.075 101.906 375.25 106.832 381.232C108.66 383.528 109.474 385.167 109.351 385.246Z" fill="#375A64"/>
<path d="M158.532 389.53C158.153 389.045 157.819 388.526 157.534 387.979C156.922 386.928 156.004 385.394 154.911 383.37C152.689 379.33 149.549 373.441 146.164 365.932C142.124 357.145 138.705 348.085 135.931 338.819C132.557 327.446 130.448 315.735 129.642 303.898C128.662 290.158 129.039 277.092 129.502 265.463C129.625 262.542 129.747 259.724 129.869 257.007C129.87 254.323 130.253 251.652 131.006 249.077C131.413 247.839 132.038 246.684 132.852 245.668C133.67 244.712 134.688 243.949 135.835 243.433C138.012 242.408 140.75 242.469 142.473 244.02L141.966 244.713L137.724 241.996L137.391 241.786L137.593 241.462C139.011 239.41 140.645 237.515 142.464 235.809C143.995 234.285 145.307 232.996 146.33 231.919C147.354 230.841 148.08 229.973 148.569 229.369C148.784 229.039 149.03 228.73 149.304 228.448C149.165 228.821 148.973 229.172 148.736 229.491C148.101 230.443 147.4 231.348 146.636 232.199C145.648 233.329 144.38 234.661 142.893 236.23C141.162 237.947 139.609 239.835 138.257 241.865L138.135 241.339L142.386 243.968L141.878 244.669C140.444 243.416 138.144 243.363 136.202 244.301C135.191 244.769 134.295 245.454 133.578 246.308C132.857 247.234 132.306 248.281 131.951 249.401C131.26 251.888 130.922 254.46 130.945 257.042C130.846 259.77 130.747 262.589 130.648 265.499C130.263 277.118 129.931 290.14 130.902 303.793C132.476 328.89 140.374 350.57 146.96 365.537C150.257 373.073 153.257 379.015 155.339 383.116L157.744 387.839C158.065 388.374 158.328 388.941 158.532 389.53Z" fill="#375A64"/>
<path d="M195.695 390.897C195.86 390.296 196.076 389.709 196.343 389.145L198.424 384.176C200.243 379.865 202.797 373.608 205.902 365.826C212.025 350.255 219.748 328.461 227.375 304.091C231.958 289.527 236.121 275.725 239.751 263.588C240.661 260.568 241.535 257.647 242.375 254.825C243.276 252.216 243.788 249.487 243.897 246.728C244.133 241.567 239.856 237.089 235.911 237.825L235.806 237.054L242.043 236.546L241.763 236.791C242.039 235.366 241.966 233.895 241.55 232.505C241.134 231.114 240.388 229.846 239.375 228.808C238.64 228.107 237.827 227.492 236.952 226.976C237.946 227.279 238.849 227.828 239.576 228.571C240.699 229.621 241.542 230.937 242.026 232.397C242.51 233.858 242.621 235.417 242.349 236.931V237.159H242.104L235.876 237.807L235.772 237.028C240.381 236.151 245.078 241.102 244.894 246.667C244.823 249.528 244.328 252.364 243.425 255.079C242.602 257.901 241.748 260.822 240.862 263.842C237.311 275.997 233.218 289.825 228.617 304.406C220.981 328.794 213.092 350.579 206.751 366.089C203.558 373.836 200.838 380.04 198.879 384.299C197.917 386.32 197.147 387.944 196.57 389.171C196.334 389.773 196.041 390.351 195.695 390.897Z" fill="#375A64"/>
<path d="M210.067 402C210.067 402.368 207.347 402.92 203.944 403.236C200.542 403.551 197.699 403.516 197.664 403.157C197.629 402.798 200.385 402.237 203.787 401.921C207.189 401.606 210.032 401.641 210.067 402Z" fill="#375A64"/>
<path d="M152.428 399.144C152.428 399.354 151.178 399.372 150.207 400.8C149.943 401.178 149.761 401.607 149.672 402.06C149.584 402.513 149.59 402.979 149.691 403.429C149.889 403.934 150.22 404.375 150.648 404.708C151.075 405.04 151.585 405.25 152.122 405.317C152.66 405.383 153.205 405.303 153.7 405.085C154.196 404.867 154.624 404.519 154.939 404.077C155.15 403.661 155.272 403.204 155.294 402.738C155.317 402.271 155.24 401.805 155.07 401.37C154.484 399.748 153.242 399.424 153.321 399.223C153.259 399.065 154.886 399.047 155.944 400.975C156.241 401.536 156.403 402.158 156.418 402.792C156.433 403.426 156.301 404.055 156.032 404.629C155.621 405.315 155.021 405.866 154.303 406.217C153.586 406.568 152.782 406.703 151.99 406.605C151.198 406.508 150.451 406.182 149.84 405.669C149.228 405.155 148.778 404.474 148.545 403.709C148.428 403.09 148.453 402.452 148.62 401.845C148.787 401.237 149.09 400.676 149.507 400.204C150.95 398.592 152.533 399.004 152.428 399.144Z" fill="#375A64"/>
<path d="M264.103 315.834C264.199 316.193 256.328 318.533 246.523 321.091C236.718 323.65 228.698 325.403 228.61 325.043C228.523 324.684 236.386 322.353 246.19 319.786C255.995 317.218 264.016 315.483 264.103 315.834Z" fill="#375A64"/>
<path d="M276.9 313.485C276.433 312.665 276.094 311.779 275.894 310.856C275.225 308.404 274.757 305.901 274.495 303.372C273.742 296.975 273.69 288.081 274.328 278.319C274.473 273.699 275.059 269.104 276.078 264.596C276.948 260.905 278.288 257.341 280.066 253.993C281.251 251.732 282.695 249.618 284.369 247.692C284.938 246.946 285.616 246.29 286.381 245.747C286.591 245.922 283.687 248.718 280.897 254.413C279.292 257.755 278.08 261.272 277.285 264.894C276.345 269.348 275.794 273.875 275.64 278.424C275.004 286.702 274.931 295.014 275.422 303.302C275.859 309.656 277.101 313.424 276.9 313.485Z" fill="#375A64"/>
<path d="M193.807 245.957C193.807 245.957 192.784 236.318 188.271 235.713C183.757 235.109 175.046 236.011 174.74 245.957L179.253 253.187C179.253 253.187 170.83 273.666 169.028 280.3C167.227 286.933 161.83 415.311 161.83 415.311L175.991 444.422L191.288 414.873L193.807 276.312L187.973 254.405L193.807 245.957Z" fill="#FFCF42"/>
<path d="M219.819 239.499C219.88 239.56 219.382 240.191 218.393 241.252C217.405 242.312 215.927 243.819 214.02 245.633C209.026 250.27 203.664 254.493 197.988 258.261L197.026 258.9L196.965 257.744C196.965 257.56 196.965 257.358 196.965 257.165C196.877 253.393 196.449 249.635 195.688 245.94C195.097 242.96 193.781 240.173 191.857 237.825C188.437 233.864 185.008 233.032 185.157 232.786C185.939 232.846 186.7 233.073 187.387 233.452C189.347 234.337 191.106 235.613 192.556 237.203C194.697 239.599 196.183 242.509 196.868 245.651C197.719 249.409 198.194 253.243 198.285 257.095V257.673L197.262 257.156C202.893 253.404 208.294 249.316 213.434 244.914C217.353 241.549 219.679 239.367 219.819 239.499Z" fill="#1A2E35"/>
<path d="M184.832 232.734C184.92 232.962 182.585 233.838 179.585 236.467C174.816 240.654 171.68 246.397 170.733 252.678L170.497 254.072L169.684 253.003C166.264 248.534 163.273 244.546 161.173 241.611C159.074 238.675 157.858 236.896 157.972 236.791C158.086 236.686 159.52 238.298 161.786 241.05C164.051 243.802 167.147 247.684 170.593 252.118L169.544 252.442C169.699 251.415 169.909 250.397 170.173 249.392C171.623 243.999 174.736 239.202 179.069 235.687C180.326 234.688 181.704 233.851 183.171 233.198C184.203 232.804 184.806 232.655 184.832 232.734Z" fill="#1A2E35"/>
<path d="M187.272 251.942C187.272 252.31 185.348 252.643 182.969 252.687C180.59 252.731 178.657 252.477 178.648 252.109C178.64 251.741 180.564 251.416 182.943 251.364C185.322 251.311 187.264 251.574 187.272 251.942Z" fill="#1A2E35"/>
<path d="M191.41 239.096C191.681 239.306 189.46 242.645 185.743 245.843C182.025 249.042 178.413 250.786 178.256 250.479C178.098 250.172 181.282 247.973 184.877 244.844C188.471 241.716 191.113 238.859 191.41 239.096Z" fill="#1A2E35"/>
<path d="M179.814 270.914C179.456 270.87 179.762 266.436 180.496 261.021C181.231 255.605 182.114 251.259 182.482 251.303C182.849 251.346 182.534 255.78 181.8 261.205C181.065 266.629 180.199 270.967 179.814 270.914Z" fill="#1A2E35"/>
<path d="M183.294 288.274C182.927 288.274 182.892 280.151 183.216 270.152C183.539 260.153 184.09 252.056 184.458 252.074C184.825 252.091 184.86 260.197 184.536 270.196C184.213 280.194 183.697 288.283 183.294 288.274Z" fill="#1A2E35"/>
<path d="M116.647 420.596C116.527 420.061 116.471 419.514 116.481 418.966C116.428 417.756 116.359 416.205 116.28 414.286C116.14 410.22 115.886 404.349 115.501 397.093C114.749 382.582 113.21 362.558 110.673 340.528C108.137 318.498 105.154 298.632 102.863 284.278C101.717 277.224 100.79 271.467 100.108 267.287C99.819 265.385 99.5741 263.851 99.3904 262.66C99.2791 262.124 99.2263 261.577 99.233 261.03C99.4262 261.54 99.5669 262.068 99.6528 262.607C99.9065 263.79 100.221 265.315 100.615 267.19C101.428 271.177 102.522 276.961 103.781 284.129C106.309 298.448 109.431 318.305 111.985 340.379C114.539 362.453 115.921 382.503 116.437 397.049C116.7 404.323 116.813 410.194 116.787 414.278C116.787 416.197 116.787 417.783 116.787 418.966C116.797 419.512 116.75 420.059 116.647 420.596Z" fill="#375A64"/>
<g opacity="0.4">
<path opacity="0.4" d="M130.388 256.648C128.07 279.546 125.744 302.601 127.589 325.543C129.435 348.485 135.723 371.558 149.184 390.205C150.014 391.537 151.128 392.669 152.447 393.518C153.109 393.926 153.877 394.131 154.654 394.106C155.432 394.081 156.185 393.828 156.82 393.378C158.875 391.625 157.694 388.295 156.374 385.92C134.718 346.276 126.111 301.673 130.388 256.648Z" fill="black"/>
</g>
<g opacity="0.4">
<path opacity="0.4" d="M196.528 389.303C196.222 391.862 199.371 393.737 201.89 393.159C204.409 392.58 206.263 390.477 207.811 388.427C220.415 371.97 227.683 351.92 231.619 331.563C235.555 311.207 236.333 294.461 237.094 273.728C226.992 315.834 208.012 368.903 195.312 391.739" fill="black"/>
</g>
<g opacity="0.4">
<path opacity="0.4" d="M274.493 286.758C274.493 286.758 273.575 314.002 280.449 318.471L278.403 338.802C278.403 338.802 278.726 356.888 279.076 363.215C273.268 351.955 271.021 339.126 270.776 326.455C270.531 313.783 272.219 301.164 273.898 288.607" fill="black"/>
</g>
<g opacity="0.4">
<path opacity="0.4" d="M106.396 398.18C100.186 384.86 84.9064 376.43 70.3523 378.288C69.3019 378.503 68.219 378.503 67.1686 378.288C66.6437 378.173 66.173 377.884 65.8332 377.467C65.4933 377.05 65.3043 376.53 65.2969 375.992C65.4659 375.212 65.9217 374.523 66.5739 374.064C73.6497 367.93 84.9414 368.403 92.5683 373.81C100.195 379.217 105.784 388.821 106.396 398.162" fill="black"/>
</g>
<path d="M320.682 417.257L324.513 376.298L286.702 244.853L274.405 292.235C274.405 292.235 266.533 375.15 266.533 376.842C266.533 378.533 276.154 394.368 276.154 394.368L273.102 417.257H320.682Z" fill="#1A2E35"/>
<path d="M276.252 394.674C276.418 394.78 277.87 392.738 280.363 389.583C283.515 385.443 287.244 381.778 291.436 378.699C295.65 375.692 300.572 373.832 305.719 373.301C309.681 372.977 312.13 373.678 312.174 373.433C312.174 373.354 311.614 373.1 310.503 372.828C308.918 372.463 307.292 372.31 305.666 372.372C300.268 372.641 295.062 374.467 290.675 377.63C286.366 380.765 282.626 384.618 279.62 389.022C277.284 392.361 276.121 394.578 276.252 394.674Z" fill="#375A64"/>
<path d="M273.436 381.907C273.759 382.187 277.809 376.044 285.287 371.487C292.765 366.931 300.025 365.984 299.911 365.555C299.911 365.406 298.065 365.397 295.188 366.011C291.441 366.879 287.863 368.359 284.596 370.392C281.321 372.408 278.404 374.954 275.963 377.928C274.118 380.189 273.304 381.828 273.436 381.907Z" fill="#375A64"/>
<g opacity="0.4">
<path opacity="0.4" d="M276.41 394.841C282.62 381.521 297.9 373.091 312.446 374.949C313.499 375.163 314.585 375.163 315.638 374.949C316.163 374.834 316.634 374.545 316.973 374.128C317.313 373.711 317.502 373.191 317.51 372.653C317.341 371.873 316.885 371.184 316.233 370.725C309.157 364.591 297.865 365.064 290.238 370.471C282.611 375.878 276.996 385.5 276.41 394.841Z" fill="black"/>
</g>
<path d="M398.028 301.094L279.951 302.058C276.12 302.058 272.464 303.898 271.887 307.693L258.986 393.929H198.137C197.226 393.975 196.368 394.369 195.74 395.03C195.112 395.692 194.762 396.57 194.762 397.483C194.762 398.396 195.112 399.274 195.74 399.935C196.368 400.597 197.226 400.991 198.137 401.036H392.413L405.69 310.024C405.857 308.918 405.784 307.789 405.476 306.715C405.168 305.64 404.632 304.645 403.905 303.797C403.177 302.949 402.275 302.268 401.261 301.802C400.247 301.335 399.144 301.094 398.028 301.094Z" fill="#E1E1E1"/>
<path d="M398.029 301.094C398.655 301.061 399.282 301.12 399.892 301.269C401.463 301.642 402.88 302.494 403.948 303.707C405.016 304.92 405.683 306.435 405.857 308.043C406.049 309.568 405.612 311.172 405.428 312.916C404.93 316.421 404.361 320.408 403.679 324.921C401.055 342.999 397.329 369.051 392.728 401.089L392.684 401.396H392.37L203.936 401.483H198.863C197.941 401.573 197.012 401.397 196.187 400.975C195.569 400.623 195.054 400.114 194.697 399.498C194.339 398.882 194.15 398.182 194.15 397.47C194.15 396.757 194.339 396.058 194.697 395.442C195.054 394.826 195.569 394.317 196.187 393.965C196.999 393.557 197.906 393.382 198.811 393.456H258.916L258.462 393.851C263.106 362.97 267.435 334.157 271.328 308.315C271.445 306.586 272.229 304.97 273.514 303.811C274.796 302.725 276.363 302.031 278.027 301.813C279.609 301.663 281.198 301.607 282.785 301.646H287.421L305.203 301.532L336.795 301.331L381.778 301.094H393.813H396.918H397.976C397.976 301.094 397.617 301.094 396.918 301.147L393.813 301.208L381.778 301.383L336.803 301.883L305.273 302.198L287.5 302.374L282.864 302.417C281.314 302.38 279.763 302.435 278.22 302.584C276.701 302.783 275.27 303.416 274.1 304.407C272.952 305.446 272.26 306.898 272.176 308.446C268.328 334.297 264.042 363.11 259.441 394L259.38 394.385H258.986H221.114H198.863C198.107 394.301 197.342 394.435 196.659 394.771C196.18 395.037 195.78 395.427 195.502 395.9C195.224 396.373 195.077 396.912 195.077 397.461C195.077 398.01 195.224 398.549 195.502 399.022C195.78 399.495 196.18 399.885 196.659 400.151C197.344 400.493 198.113 400.627 198.872 400.537H203.945L392.422 400.651L392.055 400.966L403.329 324.842C403.999 320.338 404.583 316.339 405.078 312.845C405.288 311.093 405.734 309.507 405.559 308.052C405.407 306.481 404.775 304.996 403.75 303.798C402.725 302.6 401.356 301.748 399.83 301.357C399.235 301.237 398.633 301.149 398.029 301.094Z" fill="#1A2E35"/>
<path d="M333.969 357.379C338.051 357.379 341.36 354.064 341.36 349.974C341.36 345.885 338.051 342.57 333.969 342.57C329.887 342.57 326.578 345.885 326.578 349.974C326.578 354.064 329.887 357.379 333.969 357.379Z" fill="white"/>
<path d="M263.752 400.239C263.918 400.239 267.679 378.332 272.148 351.166C276.618 324.001 280.099 302.05 279.933 302.023C279.767 301.997 276.014 323.931 271.545 351.096C267.075 378.261 263.586 400.213 263.752 400.239Z" fill="#1A2E35"/>
<path d="M566.791 401.413C566.791 401.65 439.967 401.843 283.485 401.843C127.002 401.843 0.152344 401.65 0.152344 401.413C0.152344 401.177 126.976 400.975 283.485 400.975C439.993 400.975 566.791 401.168 566.791 401.413Z" fill="#1A2E35"/>
</svg>
